<svg xmlns="http://www.w3.org/2000/svg" xmlns:xlink="http://www.w3.org/1999/xlink" width="500" zoomAndPan="magnify" viewBox="0 0 375 299.999988" height="400" preserveAspectRatio="xMidYMid meet" version="1.0"><defs><g/><clipPath id="id1"><path d="M 47 48.785156 L 137 48.785156 L 137 251.285156 L 47 251.285156 Z M 47 48.785156 " clip-rule="nonzero"/></clipPath><clipPath id="id2"><path d="M 238 48.785156 L 328 48.785156 L 328 251.285156 L 238 251.285156 Z M 238 48.785156 " clip-rule="nonzero"/></clipPath></defs><g clip-path="url(#id1)"><path fill="#d9d9d9" d="M 109.605469 48.941406 L 47.246094 150.273438 L 109.605469 251.59375 L 136.164062 235.261719 L 83.84375 150.273438 L 136.164062 65.292969 Z M 109.605469 48.941406 " fill-opacity="1" fill-rule="nonzero"/></g><g clip-path="url(#id2)"><path fill="#5ce1e6" d="M 265.511719 251.59375 L 327.878906 150.273438 L 265.511719 48.941406 L 238.949219 65.277344 L 291.273438 150.273438 L 238.949219 235.246094 Z M 265.511719 251.59375 " fill-opacity="1" fill-rule="nonzero"/></g><g fill="#d9d9d9" fill-opacity="1"><g transform="translate(118.483859, 180.230394)"><g><path d="M 21.03125 0 L 21.03125 -39.570312 L 36.941406 -16.878906 L 40.632812 -16.878906 L 56.726562 -39.433594 L 56.726562 0 L 71.300781 0 L 71.300781 -62.722656 L 58.574219 -62.722656 L 38.789062 -35.789062 L 38.789062 -35.742188 L 19.277344 -62.722656 L 6.410156 -62.722656 L 6.410156 0 Z M 21.03125 0 "/></g></g></g><g fill="#d9d9d9" fill-opacity="1"><g transform="translate(196.18088, 180.230394)"><g><path d="M 36.988281 0 C 47.367188 0 58.113281 -5.304688 58.113281 -18.679688 C 58.113281 -25.503906 52.992188 -31.132812 46.996094 -33.253906 C 51.054688 -34.914062 54.605469 -40.03125 54.605469 -45.289062 C 54.605469 -56.359375 46.675781 -62.722656 34.359375 -62.722656 L 6.410156 -62.722656 L 6.410156 0 Z M 21.214844 -50.226562 L 33.667969 -50.226562 C 37.265625 -50.226562 39.894531 -47.597656 39.894531 -43.953125 C 39.894531 -40.21875 37.265625 -37.496094 33.621094 -37.496094 L 21.214844 -37.496094 Z M 21.214844 -26.703125 L 35.652344 -26.703125 C 40.03125 -26.703125 43.167969 -23.613281 43.167969 -19.832031 C 43.167969 -15.3125 40.03125 -12.5 35.652344 -12.5 L 21.214844 -12.5 Z M 21.214844 -26.703125 "/></g></g></g></svg>