<svg xmlns="http://www.w3.org/2000/svg" xmlns:xlink="http://www.w3.org/1999/xlink" width="500" zoomAndPan="magnify" viewBox="0 0 375 299.999988" height="400" preserveAspectRatio="xMidYMid meet" version="1.0"><defs><g/><clipPath id="id1"><path d="M 3 17.355469 L 121 17.355469 L 121 282.855469 L 3 282.855469 Z M 3 17.355469 " clip-rule="nonzero"/></clipPath><clipPath id="id2"><path d="M 254 17.355469 L 372 17.355469 L 372 282.855469 L 254 282.855469 Z M 254 17.355469 " clip-rule="nonzero"/></clipPath></defs><g clip-path="url(#id1)"><path fill="#0284c7" d="M 85.410156 17.5625 L 3.695312 150.417969 L 85.410156 283.257812 L 120.207031 261.847656 L 51.652344 150.417969 L 120.207031 39 Z M 85.410156 17.5625 " fill-opacity="1" fill-rule="nonzero"/></g><g clip-path="url(#id2)"><path fill="#0284c7" d="M 289.695312 283.257812 L 371.417969 150.417969 L 289.695312 17.5625 L 254.890625 38.980469 L 323.453125 150.417969 L 254.890625 261.828125 Z M 289.695312 283.257812 " fill-opacity="1" fill-rule="nonzero"/></g><g fill="#0284c7" fill-opacity="1"><g transform="translate(97.039306, 190.488999)"><g><path d="M 27.5625 0 L 27.5625 -51.859375 L 48.414062 -22.121094 L 53.25 -22.121094 L 74.34375 -51.679688 L 74.34375 0 L 93.445312 0 L 93.445312 -82.199219 L 76.761719 -82.199219 L 50.832031 -46.902344 L 50.832031 -46.84375 L 25.265625 -82.199219 L 8.402344 -82.199219 L 8.402344 0 Z M 27.5625 0 "/></g></g></g><g fill="#0284c7" fill-opacity="1"><g transform="translate(198.882115, 190.488999)"><g><path d="M 48.472656 0 C 62.074219 0 76.15625 -6.949219 76.15625 -24.480469 C 76.15625 -33.425781 69.449219 -40.796875 61.589844 -43.578125 C 66.910156 -45.753906 71.5625 -52.464844 71.5625 -59.355469 C 71.5625 -73.859375 61.167969 -82.199219 45.03125 -82.199219 L 8.402344 -82.199219 L 8.402344 0 Z M 27.804688 -65.820312 L 44.121094 -65.820312 C 48.835938 -65.820312 52.28125 -62.375 52.28125 -57.601562 C 52.28125 -52.707031 48.835938 -49.140625 44.0625 -49.140625 L 27.804688 -49.140625 Z M 27.804688 -34.996094 L 46.722656 -34.996094 C 52.464844 -34.996094 56.574219 -30.945312 56.574219 -25.988281 C 56.574219 -20.066406 52.464844 -16.378906 46.722656 -16.378906 L 27.804688 -16.378906 Z M 27.804688 -34.996094 "/></g></g></g></svg>